<?xml version="1.0" encoding="UTF-8" standalone="no"?>
<svg
   xmlns:dc="http://purl.org/dc/elements/1.1/"
   xmlns:cc="http://creativecommons.org/ns#"
   xmlns:rdf="http://www.w3.org/1999/02/22-rdf-syntax-ns#"
   xmlns:svg="http://www.w3.org/2000/svg"
   xmlns="http://www.w3.org/2000/svg"
   xmlns:sodipodi="http://sodipodi.sourceforge.net/DTD/sodipodi-0.dtd"
   xmlns:inkscape="http://www.inkscape.org/namespaces/inkscape"
   inkscape:export-ydpi="96"
   inkscape:export-xdpi="96"
   inkscape:export-filename="/home/pi/bitfundmeBlog/assets/tipjar.png"
   width="82.098389mm"
   height="116.08942mm"
   viewBox="0 0 82.098388 116.08941"
   version="1.1"
   id="svg8"
   inkscape:version="1.0rc1 (e8361d971c, 2020-04-28)"
   sodipodi:docname="tipjar.svg">
  <defs
     id="defs2" />
  <sodipodi:namedview
     id="base"
     pagecolor="#ffffff"
     bordercolor="#666666"
     borderopacity="1.0"
     inkscape:pageopacity="0.0"
     inkscape:pageshadow="2"
     inkscape:zoom="0.98994949"
     inkscape:cx="37.471361"
     inkscape:cy="154.19547"
     inkscape:document-units="mm"
     inkscape:current-layer="layer1"
     inkscape:document-rotation="0"
     showgrid="false"
     inkscape:window-width="1598"
     inkscape:window-height="834"
     inkscape:window-x="0"
     inkscape:window-y="36"
     inkscape:window-maximized="0" />
  <metadata
     id="metadata5">
    <rdf:RDF>
      <cc:Work
         rdf:about="">
        <dc:format>image/svg+xml</dc:format>
        <dc:type
           rdf:resource="http://purl.org/dc/dcmitype/StillImage" />
        <dc:title />
      </cc:Work>
    </rdf:RDF>
  </metadata>
  <g
     inkscape:label="Layer 1"
     inkscape:groupmode="layer"
     id="layer1"
     transform="translate(-107.29035,-144.38751)">
    <path
       style="fill:#008080;stroke:#f7931a;stroke-width:3.265;stroke-linecap:round;stroke-linejoin:round;stroke-miterlimit:4;stroke-dasharray:none;stroke-dashoffset:0;stroke-opacity:1"
       d="m 109.03719,177.76287 -0.11434,56.70607 c 1.70526,13.26203 10.32816,19.72316 21.22147,23.95219 l 34.07006,0.4233 c 10.51344,-3.74452 20.29881,-8.5004 23.2615,-22.7335 l 0.28036,-56.94495 c -1.0517,-1.8104 1.50875,-2.06822 -10.68426,-8.66736 l -0.51289,-6.05455 c 1.77409,-0.27315 3.57066,-1.31574 5.41655,-4.04613 l -0.30114,-14.1604 -33.70371,-0.21753 -34.13666,0.93479 -0.20332,13.80724 c 1.13962,1.29742 0.75225,3.24701 5.8182,2.8675 l 0.2942,6.87584 c -4.82308,2.41916 -9.96245,4.83833 -10.70602,7.25749 z"
       id="path1106"
       sodipodi:nodetypes="cccccccccccccccc" />
    <g
       inkscape:label="Layer 1"
       id="layer1-3"
       transform="matrix(0.80566006,0,0,0.80566006,59.530364,36.973602)">
      <g
         id="g120"
         transform="matrix(0.01219971,0,0,0.01219971,102.79953,186.86311)">
        <path
           id="path106"
           fill="#f7931a"
           d="M 1970,1242 C 1836.52,1777.66 1293.82,2103.68 758,1970 222.18,1836.32 -103.69,1293.89 30,758.18 163.69,222.47 706.12,-103.7 1241.82,30 1777.52,163.7 2103.69,706.16 1970,1242 Z" />
        <path
           id="path108"
           fill="#ffffff"
           d="M 1441,857.53 C 1460.88,724.46 1359.56,652.92 1221,605.2 l 45,-180.25 -109.76,-27.34 -43.84,175.51 c -28.82,-7.18 -58.44,-14 -87.88,-20.68 l 44,-176.67 L 958.87,348.43 914,528.61 692.68,473.79 663.48,591 c 0,0 81.42,18.66 79.7,19.82 44.44,11.1 52.5,40.5 51.14,63.82 l -123.14,493.8 c -5.44,13.5 -19.22,33.74 -50.28,26 1.1,1.6 -79.76,-20 -79.76,-20 l -54.48,125.79 221,55.8 -45.42,182.35 109.6,27.34 45,-180.39 c 30,8.12 59,15.62 87.42,22.68 l -44.82,179.55 109.74,27.34 45.42,-182 c 187.13,35.4 327.85,21.12 387,-148 47.72,-136.25 -2.34,-214.85 -100.8,-266.13 71.7,-16.6 125.7,-63.74 140.11,-161.17 m -250.71,351.52 c -34,136.25 -263.35,62.62 -337.77,44.12 l 60.26,-241.55 c 74.38,18.56 312.89,55.32 277.55,197.41 m 34,-353.5 c -30.94,124 -221.91,61 -283.89,45.54 L 994.91,682 c 62,15.48 261.51,44.3 229.25,173.59" />
      </g>
      <path
         style="fill:#f7931a;fill-opacity:1;stroke-width:0.0357143"
         d="m 377.23455,879.46224 -37.81288,-12.94612 -6.91927,0.20057 -6.91926,0.20057 v -29.9969 -29.9969 l 0.854,-0.38911 c 0.46969,-0.21401 7.17952,-3.07194 14.91071,-6.35095 7.73119,-3.27901 15.42279,-6.5748 17.09243,-7.32398 3.92504,-1.76118 5.88416,-2.01212 9.69139,-1.24138 5.76914,1.16791 7.43585,2.0637 13.7183,7.37303 8.08015,6.82857 10.44157,8.70062 15.69745,12.44437 5.16261,3.67731 5.56817,4.07106 8.07533,7.84032 2.16576,3.25599 3.35989,6.8901 3.03732,9.24351 -0.26239,1.91431 -1.51443,4.68912 -2.24174,4.96822 -0.27599,0.10591 -8.11055,-3.28205 -17.41016,-7.52878 -17.91519,-8.18111 -18.11486,-8.24987 -21.3485,-7.35175 -0.72399,0.20108 -1.74564,0.87579 -2.27034,1.49936 -0.82321,0.97834 -0.93314,1.38084 -0.80185,2.93598 0.0837,0.99122 0.54282,2.57983 1.02033,3.53025 l 0.86818,1.72803 21.1406,9.73929 21.14059,9.7393 36.53798,-14.08458 c 20.09589,-7.74651 37.02084,-14.16697 37.61101,-14.26768 1.34809,-0.23005 5.11885,0.73086 7.39581,1.88468 3.46724,1.75699 5.84194,5.07382 6.74553,9.42177 0.36443,1.75359 0.31248,9.10342 -0.0665,9.41204 -0.23448,0.19092 -80.42493,51.37832 -81.21928,51.84412 -0.60625,0.3555 -6.43349,-1.53925 -38.52716,-12.52728 z"
         id="path1113"
         transform="scale(0.26458333)" />
    </g>
  </g>
</svg>
